<mxfile host="app.diagrams.net" modified="2023-04-07T14:31:01.507Z" agent="Mozilla/5.0 (Windows NT 10.0; Win64; x64) AppleWebKit/537.36 (KHTML, like Gecko) Chrome/112.0.0.0 Safari/537.36" etag="dvSEQss-QTNnHk4xIvBt" version="21.1.5" type="device">
  <diagram name="Page-1" id="sl_smt0Q-jwHzwTnQv2A">
    <mxGraphModel dx="838" dy="434" grid="1" gridSize="10" guides="1" tooltips="1" connect="1" arrows="1" fold="1" page="1" pageScale="1" pageWidth="827" pageHeight="1169" math="0" shadow="0">
      <root>
        <mxCell id="0" />
        <mxCell id="1" parent="0" />
        <mxCell id="N-r1b9CIjYCUpJHPtU2t-24" value="Update Profile" style="edgeStyle=orthogonalEdgeStyle;rounded=0;orthogonalLoop=1;jettySize=auto;html=1;exitX=0.326;exitY=-0.006;exitDx=0;exitDy=0;entryX=0;entryY=0.5;entryDx=0;entryDy=0;exitPerimeter=0;fontSize=12;" edge="1" parent="1" source="N-r1b9CIjYCUpJHPtU2t-2" target="N-r1b9CIjYCUpJHPtU2t-4">
          <mxGeometry x="0.5628" relative="1" as="geometry">
            <Array as="points">
              <mxPoint x="119" y="180" />
            </Array>
            <mxPoint as="offset" />
          </mxGeometry>
        </mxCell>
        <mxCell id="N-r1b9CIjYCUpJHPtU2t-2" value="&lt;h1&gt;Admin&lt;/h1&gt;" style="rounded=0;whiteSpace=wrap;html=1;" vertex="1" parent="1">
          <mxGeometry x="80" y="550" width="120" height="60" as="geometry" />
        </mxCell>
        <mxCell id="N-r1b9CIjYCUpJHPtU2t-23" value="Login Details" style="edgeStyle=orthogonalEdgeStyle;rounded=0;orthogonalLoop=1;jettySize=auto;html=1;exitX=0.147;exitY=0.002;exitDx=0;exitDy=0;entryX=0;entryY=0.5;entryDx=0;entryDy=0;exitPerimeter=0;fontSize=12;" edge="1" parent="1" source="N-r1b9CIjYCUpJHPtU2t-2" target="N-r1b9CIjYCUpJHPtU2t-3">
          <mxGeometry x="0.6116" relative="1" as="geometry">
            <Array as="points">
              <mxPoint x="99" y="550" />
              <mxPoint x="99" y="70" />
            </Array>
            <mxPoint as="offset" />
          </mxGeometry>
        </mxCell>
        <mxCell id="N-r1b9CIjYCUpJHPtU2t-38" value="Login Details" style="edgeStyle=orthogonalEdgeStyle;rounded=0;orthogonalLoop=1;jettySize=auto;html=1;exitX=1;exitY=0.5;exitDx=0;exitDy=0;entryX=0;entryY=0.5;entryDx=0;entryDy=0;fontSize=12;" edge="1" parent="1" source="N-r1b9CIjYCUpJHPtU2t-3" target="N-r1b9CIjYCUpJHPtU2t-12">
          <mxGeometry relative="1" as="geometry" />
        </mxCell>
        <mxCell id="N-r1b9CIjYCUpJHPtU2t-3" value="Login" style="ellipse;whiteSpace=wrap;html=1;aspect=fixed;fontSize=18;fontStyle=1" vertex="1" parent="1">
          <mxGeometry x="390" y="30" width="80" height="80" as="geometry" />
        </mxCell>
        <mxCell id="N-r1b9CIjYCUpJHPtU2t-39" value="Update Profile" style="edgeStyle=orthogonalEdgeStyle;rounded=0;orthogonalLoop=1;jettySize=auto;html=1;exitX=1;exitY=0.5;exitDx=0;exitDy=0;entryX=0;entryY=0.5;entryDx=0;entryDy=0;fontSize=12;" edge="1" parent="1" source="N-r1b9CIjYCUpJHPtU2t-4" target="N-r1b9CIjYCUpJHPtU2t-13">
          <mxGeometry relative="1" as="geometry" />
        </mxCell>
        <mxCell id="N-r1b9CIjYCUpJHPtU2t-4" value="Update Profile" style="ellipse;whiteSpace=wrap;html=1;aspect=fixed;fontSize=17;fontStyle=1" vertex="1" parent="1">
          <mxGeometry x="390" y="140" width="80" height="80" as="geometry" />
        </mxCell>
        <mxCell id="N-r1b9CIjYCUpJHPtU2t-25" value="User Details" style="edgeStyle=orthogonalEdgeStyle;rounded=0;orthogonalLoop=1;jettySize=auto;html=1;exitX=0;exitY=0.5;exitDx=0;exitDy=0;fontSize=12;" edge="1" parent="1" source="N-r1b9CIjYCUpJHPtU2t-5" target="N-r1b9CIjYCUpJHPtU2t-2">
          <mxGeometry x="-0.451" relative="1" as="geometry">
            <mxPoint as="offset" />
          </mxGeometry>
        </mxCell>
        <mxCell id="N-r1b9CIjYCUpJHPtU2t-5" value="Report" style="ellipse;whiteSpace=wrap;html=1;aspect=fixed;fontSize=18;fontStyle=1" vertex="1" parent="1">
          <mxGeometry x="390" y="250" width="80" height="80" as="geometry" />
        </mxCell>
        <mxCell id="N-r1b9CIjYCUpJHPtU2t-41" value="User Detals" style="edgeStyle=orthogonalEdgeStyle;rounded=0;orthogonalLoop=1;jettySize=auto;html=1;exitX=0.006;exitY=0.039;exitDx=0;exitDy=0;entryX=1;entryY=0;entryDx=0;entryDy=0;exitPerimeter=0;fontSize=12;" edge="1" parent="1" source="N-r1b9CIjYCUpJHPtU2t-15" target="N-r1b9CIjYCUpJHPtU2t-6">
          <mxGeometry x="-0.0003" relative="1" as="geometry">
            <mxPoint x="640" y="372" as="sourcePoint" />
            <Array as="points">
              <mxPoint x="560" y="372" />
            </Array>
            <mxPoint as="offset" />
          </mxGeometry>
        </mxCell>
        <mxCell id="N-r1b9CIjYCUpJHPtU2t-42" value="Active/Disabled" style="edgeStyle=orthogonalEdgeStyle;rounded=0;orthogonalLoop=1;jettySize=auto;html=1;exitX=1;exitY=1;exitDx=0;exitDy=0;entryX=0.007;entryY=0.967;entryDx=0;entryDy=0;entryPerimeter=0;fontSize=12;" edge="1" parent="1" source="N-r1b9CIjYCUpJHPtU2t-6" target="N-r1b9CIjYCUpJHPtU2t-15">
          <mxGeometry relative="1" as="geometry" />
        </mxCell>
        <mxCell id="N-r1b9CIjYCUpJHPtU2t-6" value="Manage Users" style="ellipse;whiteSpace=wrap;html=1;aspect=fixed;fontSize=17;fontStyle=1" vertex="1" parent="1">
          <mxGeometry x="390" y="360" width="80" height="80" as="geometry" />
        </mxCell>
        <mxCell id="N-r1b9CIjYCUpJHPtU2t-29" value="Product Details" style="edgeStyle=orthogonalEdgeStyle;rounded=0;orthogonalLoop=1;jettySize=auto;html=1;exitX=0.956;exitY=0.007;exitDx=0;exitDy=0;entryX=0;entryY=0.5;entryDx=0;entryDy=0;exitPerimeter=0;fontSize=12;" edge="1" parent="1" source="N-r1b9CIjYCUpJHPtU2t-2" target="N-r1b9CIjYCUpJHPtU2t-7">
          <mxGeometry x="-0.1028" relative="1" as="geometry">
            <Array as="points">
              <mxPoint x="195" y="510" />
            </Array>
            <mxPoint as="offset" />
          </mxGeometry>
        </mxCell>
        <mxCell id="N-r1b9CIjYCUpJHPtU2t-7" value="Products" style="ellipse;whiteSpace=wrap;html=1;aspect=fixed;fontSize=18;fontStyle=1" vertex="1" parent="1">
          <mxGeometry x="390" y="470" width="80" height="80" as="geometry" />
        </mxCell>
        <mxCell id="N-r1b9CIjYCUpJHPtU2t-31" value="Project Details" style="edgeStyle=orthogonalEdgeStyle;rounded=0;orthogonalLoop=1;jettySize=auto;html=1;exitX=0;exitY=0.5;exitDx=0;exitDy=0;entryX=0.915;entryY=0.997;entryDx=0;entryDy=0;entryPerimeter=0;fontSize=12;" edge="1" parent="1" source="N-r1b9CIjYCUpJHPtU2t-8" target="N-r1b9CIjYCUpJHPtU2t-2">
          <mxGeometry x="0.2129" relative="1" as="geometry">
            <mxPoint x="200" y="610" as="targetPoint" />
            <Array as="points">
              <mxPoint x="295" y="625" />
              <mxPoint x="190" y="624" />
            </Array>
            <mxPoint as="offset" />
          </mxGeometry>
        </mxCell>
        <mxCell id="N-r1b9CIjYCUpJHPtU2t-8" value="Projects" style="ellipse;whiteSpace=wrap;html=1;aspect=fixed;fontSize=17;fontStyle=1" vertex="1" parent="1">
          <mxGeometry x="390" y="584.5" width="80" height="80" as="geometry" />
        </mxCell>
        <mxCell id="N-r1b9CIjYCUpJHPtU2t-32" value="Change Password" style="edgeStyle=orthogonalEdgeStyle;rounded=0;orthogonalLoop=1;jettySize=auto;html=1;exitX=0.821;exitY=1.009;exitDx=0;exitDy=0;entryX=0.061;entryY=0.249;entryDx=0;entryDy=0;entryPerimeter=0;exitPerimeter=0;fontSize=12;" edge="1" parent="1" source="N-r1b9CIjYCUpJHPtU2t-2" target="N-r1b9CIjYCUpJHPtU2t-9">
          <mxGeometry x="0.1719" relative="1" as="geometry">
            <Array as="points">
              <mxPoint x="179" y="720" />
            </Array>
            <mxPoint as="offset" />
          </mxGeometry>
        </mxCell>
        <mxCell id="N-r1b9CIjYCUpJHPtU2t-46" value="Change Password" style="edgeStyle=orthogonalEdgeStyle;rounded=0;orthogonalLoop=1;jettySize=auto;html=1;exitX=0.938;exitY=0.233;exitDx=0;exitDy=0;entryX=-0.019;entryY=0.144;entryDx=0;entryDy=0;entryPerimeter=0;exitPerimeter=0;fontSize=12;" edge="1" parent="1" source="N-r1b9CIjYCUpJHPtU2t-9" target="N-r1b9CIjYCUpJHPtU2t-19">
          <mxGeometry relative="1" as="geometry" />
        </mxCell>
        <mxCell id="N-r1b9CIjYCUpJHPtU2t-9" value="Change Password" style="ellipse;whiteSpace=wrap;html=1;aspect=fixed;fontSize=16;fontStyle=1" vertex="1" parent="1">
          <mxGeometry x="390" y="700" width="80" height="80" as="geometry" />
        </mxCell>
        <mxCell id="N-r1b9CIjYCUpJHPtU2t-34" value="Order Details" style="edgeStyle=orthogonalEdgeStyle;rounded=0;orthogonalLoop=1;jettySize=auto;html=1;exitX=0;exitY=0.5;exitDx=0;exitDy=0;entryX=0.5;entryY=1;entryDx=0;entryDy=0;fontSize=12;" edge="1" parent="1" source="N-r1b9CIjYCUpJHPtU2t-10" target="N-r1b9CIjYCUpJHPtU2t-2">
          <mxGeometry x="-0.4286" relative="1" as="geometry">
            <mxPoint as="offset" />
          </mxGeometry>
        </mxCell>
        <mxCell id="N-r1b9CIjYCUpJHPtU2t-10" value="Order" style="ellipse;whiteSpace=wrap;html=1;aspect=fixed;fontSize=18;fontStyle=1" vertex="1" parent="1">
          <mxGeometry x="390" y="810" width="80" height="80" as="geometry" />
        </mxCell>
        <mxCell id="N-r1b9CIjYCUpJHPtU2t-35" value="Contact/Message Details" style="edgeStyle=orthogonalEdgeStyle;rounded=0;orthogonalLoop=1;jettySize=auto;html=1;exitX=0;exitY=0;exitDx=0;exitDy=0;entryX=0.25;entryY=1;entryDx=0;entryDy=0;fontSize=12;" edge="1" parent="1" source="N-r1b9CIjYCUpJHPtU2t-11" target="N-r1b9CIjYCUpJHPtU2t-2">
          <mxGeometry x="-0.5054" relative="1" as="geometry">
            <mxPoint as="offset" />
          </mxGeometry>
        </mxCell>
        <mxCell id="N-r1b9CIjYCUpJHPtU2t-36" value="Reply" style="edgeStyle=orthogonalEdgeStyle;rounded=0;orthogonalLoop=1;jettySize=auto;html=1;exitX=0.112;exitY=0.99;exitDx=0;exitDy=0;entryX=0;entryY=1;entryDx=0;entryDy=0;exitPerimeter=0;fontSize=12;" edge="1" parent="1" source="N-r1b9CIjYCUpJHPtU2t-2" target="N-r1b9CIjYCUpJHPtU2t-11">
          <mxGeometry x="0.5584" relative="1" as="geometry">
            <Array as="points">
              <mxPoint x="93" y="988" />
            </Array>
            <mxPoint as="offset" />
          </mxGeometry>
        </mxCell>
        <mxCell id="N-r1b9CIjYCUpJHPtU2t-52" value="Reply" style="edgeStyle=orthogonalEdgeStyle;rounded=0;orthogonalLoop=1;jettySize=auto;html=1;exitX=1;exitY=1;exitDx=0;exitDy=0;fontSize=12;" edge="1" parent="1" source="N-r1b9CIjYCUpJHPtU2t-11">
          <mxGeometry relative="1" as="geometry">
            <mxPoint x="650" y="988" as="targetPoint" />
            <Array as="points">
              <mxPoint x="560" y="988" />
              <mxPoint x="650" y="988" />
            </Array>
          </mxGeometry>
        </mxCell>
        <mxCell id="N-r1b9CIjYCUpJHPtU2t-11" value="Message" style="ellipse;whiteSpace=wrap;html=1;aspect=fixed;fontSize=17;fontStyle=1" vertex="1" parent="1">
          <mxGeometry x="390" y="920" width="80" height="80" as="geometry" />
        </mxCell>
        <mxCell id="N-r1b9CIjYCUpJHPtU2t-12" value="Registrations" style="shape=partialRectangle;whiteSpace=wrap;html=1;left=0;right=0;fillColor=none;fontStyle=1;fontSize=15;" vertex="1" parent="1">
          <mxGeometry x="650" y="40" width="120" height="60" as="geometry" />
        </mxCell>
        <mxCell id="N-r1b9CIjYCUpJHPtU2t-13" value="Registrations" style="shape=partialRectangle;whiteSpace=wrap;html=1;left=0;right=0;fillColor=none;fontSize=15;fontStyle=1" vertex="1" parent="1">
          <mxGeometry x="650" y="150" width="120" height="60" as="geometry" />
        </mxCell>
        <mxCell id="N-r1b9CIjYCUpJHPtU2t-40" value="User Details" style="edgeStyle=orthogonalEdgeStyle;rounded=0;orthogonalLoop=1;jettySize=auto;html=1;exitX=0;exitY=0.5;exitDx=0;exitDy=0;entryX=1;entryY=0.5;entryDx=0;entryDy=0;fontSize=12;" edge="1" parent="1" source="N-r1b9CIjYCUpJHPtU2t-14" target="N-r1b9CIjYCUpJHPtU2t-5">
          <mxGeometry relative="1" as="geometry" />
        </mxCell>
        <mxCell id="N-r1b9CIjYCUpJHPtU2t-14" value="Registrations" style="shape=partialRectangle;whiteSpace=wrap;html=1;left=0;right=0;fillColor=none;fontSize=15;fontStyle=1" vertex="1" parent="1">
          <mxGeometry x="650" y="260" width="120" height="60" as="geometry" />
        </mxCell>
        <mxCell id="N-r1b9CIjYCUpJHPtU2t-15" value="Users" style="shape=partialRectangle;whiteSpace=wrap;html=1;left=0;right=0;fillColor=none;fontSize=15;fontStyle=1" vertex="1" parent="1">
          <mxGeometry x="650" y="370" width="120" height="60" as="geometry" />
        </mxCell>
        <mxCell id="N-r1b9CIjYCUpJHPtU2t-16" value="Products" style="shape=partialRectangle;whiteSpace=wrap;html=1;left=0;right=0;fillColor=none;fontSize=15;fontStyle=1" vertex="1" parent="1">
          <mxGeometry x="650" y="480" width="120" height="60" as="geometry" />
        </mxCell>
        <mxCell id="N-r1b9CIjYCUpJHPtU2t-45" value="Project Details" style="edgeStyle=orthogonalEdgeStyle;rounded=0;orthogonalLoop=1;jettySize=auto;html=1;fontSize=12;" edge="1" parent="1" source="N-r1b9CIjYCUpJHPtU2t-18" target="N-r1b9CIjYCUpJHPtU2t-8">
          <mxGeometry relative="1" as="geometry" />
        </mxCell>
        <mxCell id="N-r1b9CIjYCUpJHPtU2t-18" value="Projects" style="shape=partialRectangle;whiteSpace=wrap;html=1;left=0;right=0;fillColor=none;fontSize=15;fontStyle=1" vertex="1" parent="1">
          <mxGeometry x="650" y="594.5" width="120" height="60" as="geometry" />
        </mxCell>
        <mxCell id="N-r1b9CIjYCUpJHPtU2t-19" value="Registrations" style="shape=partialRectangle;whiteSpace=wrap;html=1;left=0;right=0;fillColor=none;fontSize=14;fontStyle=1" vertex="1" parent="1">
          <mxGeometry x="650" y="710" width="120" height="60" as="geometry" />
        </mxCell>
        <mxCell id="N-r1b9CIjYCUpJHPtU2t-48" value="Order Details" style="edgeStyle=orthogonalEdgeStyle;rounded=0;orthogonalLoop=1;jettySize=auto;html=1;entryX=1;entryY=0.5;entryDx=0;entryDy=0;fontSize=12;" edge="1" parent="1" source="N-r1b9CIjYCUpJHPtU2t-20" target="N-r1b9CIjYCUpJHPtU2t-10">
          <mxGeometry relative="1" as="geometry" />
        </mxCell>
        <mxCell id="N-r1b9CIjYCUpJHPtU2t-20" value="Orders" style="shape=partialRectangle;whiteSpace=wrap;html=1;left=0;right=0;fillColor=none;fontSize=15;fontStyle=1" vertex="1" parent="1">
          <mxGeometry x="650" y="820" width="120" height="60" as="geometry" />
        </mxCell>
        <mxCell id="N-r1b9CIjYCUpJHPtU2t-51" value="Contact/Meesage Details" style="edgeStyle=orthogonalEdgeStyle;rounded=0;orthogonalLoop=1;jettySize=auto;html=1;exitX=0.001;exitY=0.034;exitDx=0;exitDy=0;entryX=1;entryY=0;entryDx=0;entryDy=0;exitPerimeter=0;fontSize=12;" edge="1" parent="1" source="N-r1b9CIjYCUpJHPtU2t-21" target="N-r1b9CIjYCUpJHPtU2t-11">
          <mxGeometry relative="1" as="geometry">
            <Array as="points" />
          </mxGeometry>
        </mxCell>
        <mxCell id="N-r1b9CIjYCUpJHPtU2t-21" value="Contact Us" style="shape=partialRectangle;whiteSpace=wrap;html=1;left=0;right=0;fillColor=none;fontSize=15;fontStyle=1" vertex="1" parent="1">
          <mxGeometry x="650" y="930" width="120" height="60" as="geometry" />
        </mxCell>
        <mxCell id="N-r1b9CIjYCUpJHPtU2t-26" value="User Details" style="edgeStyle=orthogonalEdgeStyle;rounded=0;orthogonalLoop=1;jettySize=auto;html=1;exitX=0;exitY=0;exitDx=0;exitDy=0;entryX=0.651;entryY=-0.012;entryDx=0;entryDy=0;entryPerimeter=0;fontSize=12;" edge="1" parent="1" source="N-r1b9CIjYCUpJHPtU2t-6" target="N-r1b9CIjYCUpJHPtU2t-2">
          <mxGeometry x="-0.2791" relative="1" as="geometry">
            <mxPoint x="414" y="330" as="sourcePoint" />
            <mxPoint x="164" y="590" as="targetPoint" />
            <Array as="points">
              <mxPoint x="397" y="372" />
              <mxPoint x="158" y="372" />
            </Array>
            <mxPoint as="offset" />
          </mxGeometry>
        </mxCell>
        <mxCell id="N-r1b9CIjYCUpJHPtU2t-27" value="Active/Disabled" style="edgeStyle=orthogonalEdgeStyle;rounded=0;orthogonalLoop=1;jettySize=auto;html=1;exitX=0.75;exitY=0;exitDx=0;exitDy=0;fontSize=12;" edge="1" parent="1" source="N-r1b9CIjYCUpJHPtU2t-2">
          <mxGeometry x="0.1364" relative="1" as="geometry">
            <mxPoint x="151" y="594.5" as="sourcePoint" />
            <mxPoint x="402" y="430" as="targetPoint" />
            <Array as="points">
              <mxPoint x="170" y="430" />
              <mxPoint x="402" y="430" />
            </Array>
            <mxPoint as="offset" />
          </mxGeometry>
        </mxCell>
        <mxCell id="N-r1b9CIjYCUpJHPtU2t-33" value="Confirm Status" style="edgeStyle=orthogonalEdgeStyle;rounded=0;orthogonalLoop=1;jettySize=auto;html=1;exitX=0.089;exitY=0.799;exitDx=0;exitDy=0;entryX=0.666;entryY=0.991;entryDx=0;entryDy=0;entryPerimeter=0;exitPerimeter=0;fontSize=12;" edge="1" parent="1" source="N-r1b9CIjYCUpJHPtU2t-9" target="N-r1b9CIjYCUpJHPtU2t-2">
          <mxGeometry x="-0.2998" relative="1" as="geometry">
            <mxPoint x="390" y="763.5" as="sourcePoint" />
            <mxPoint x="174" y="654.5" as="targetPoint" />
            <Array as="points">
              <mxPoint x="160" y="764" />
            </Array>
            <mxPoint as="offset" />
          </mxGeometry>
        </mxCell>
        <mxCell id="N-r1b9CIjYCUpJHPtU2t-44" value="Product Details" style="endArrow=classic;html=1;rounded=0;entryX=0;entryY=0.5;entryDx=0;entryDy=0;exitX=1;exitY=0.5;exitDx=0;exitDy=0;fontSize=12;" edge="1" parent="1" source="N-r1b9CIjYCUpJHPtU2t-7" target="N-r1b9CIjYCUpJHPtU2t-16">
          <mxGeometry width="50" height="50" relative="1" as="geometry">
            <mxPoint x="661" y="499" as="sourcePoint" />
            <mxPoint x="476" y="499" as="targetPoint" />
          </mxGeometry>
        </mxCell>
        <mxCell id="N-r1b9CIjYCUpJHPtU2t-47" value="Confirm Status" style="edgeStyle=orthogonalEdgeStyle;rounded=0;orthogonalLoop=1;jettySize=auto;html=1;exitX=0;exitY=0.856;exitDx=0;exitDy=0;exitPerimeter=0;entryX=0.921;entryY=0.767;entryDx=0;entryDy=0;entryPerimeter=0;fontSize=12;" edge="1" parent="1" source="N-r1b9CIjYCUpJHPtU2t-19" target="N-r1b9CIjYCUpJHPtU2t-9">
          <mxGeometry relative="1" as="geometry">
            <mxPoint x="640" y="760" as="sourcePoint" />
            <mxPoint x="467" y="760" as="targetPoint" />
          </mxGeometry>
        </mxCell>
      </root>
    </mxGraphModel>
  </diagram>
</mxfile>
